<svg width="15" height="16" viewBox="0 0 15 16" fill="none" xmlns="http://www.w3.org/2000/svg">
<path d="M14.6672 6.55728L13.6471 5.3722C13.4521 5.14718 13.2946 4.72716 13.2946 4.42714V3.15206C13.2946 2.35702 12.642 1.70448 11.847 1.70448H10.5719C10.2794 1.70448 9.85187 1.54697 9.62686 1.35196L8.44179 0.331895C7.92426 -0.110632 7.0767 -0.110632 6.55167 0.331895L5.37407 1.35946C5.14906 1.54697 4.72153 1.70448 4.42902 1.70448H3.13144C2.33639 1.70448 1.68385 2.35702 1.68385 3.15206V4.43464C1.68385 4.72716 1.52634 5.14718 1.33883 5.3722L0.32627 6.56478C-0.108757 7.08231 -0.108757 7.92236 0.32627 8.43989L1.33883 9.63246C1.52634 9.85748 1.68385 10.2775 1.68385 10.57V11.8526C1.68385 12.6476 2.33639 13.3002 3.13144 13.3002H4.42902C4.72153 13.3002 5.14906 13.4577 5.37407 13.6527L6.55917 14.6728C7.0767 15.1153 7.92426 15.1153 8.44929 14.6728L9.63436 13.6527C9.85937 13.4577 10.2794 13.3002 10.5794 13.3002H11.8545C12.6495 13.3002 13.3021 12.6476 13.3021 11.8526V10.5775C13.3021 10.285 13.4596 9.85748 13.6546 9.63246L14.6747 8.44739C15.1097 7.92986 15.1097 7.07481 14.6672 6.55728ZM10.6169 6.08475L6.9942 9.70747C6.88919 9.81247 6.74669 9.87248 6.59668 9.87248C6.44667 9.87248 6.30416 9.81247 6.19915 9.70747L4.38401 7.89236C4.1665 7.67484 4.1665 7.31482 4.38401 7.09731C4.60153 6.8798 4.96155 6.8798 5.17906 7.09731L6.59668 8.5149L9.82187 5.28969C10.0394 5.07218 10.3994 5.07218 10.6169 5.28969C10.8344 5.50721 10.8344 5.86723 10.6169 6.08475Z" fill="#008000"/>
</svg>
