<svg width="32" height="32" viewBox="0 0 32 32" fill="none" xmlns="http://www.w3.org/2000/svg">
<path d="M16 0C7.184 0 0 7.184 0 16C0 24.816 7.184 32 16 32C24.816 32 32 24.816 32 16C32 7.184 24.816 0 16 0ZM21.376 19.68C21.84 20.144 21.84 20.912 21.376 21.376C21.136 21.616 20.832 21.728 20.528 21.728C20.224 21.728 19.92 21.616 19.68 21.376L16 17.696L12.32 21.376C12.08 21.616 11.776 21.728 11.472 21.728C11.168 21.728 10.864 21.616 10.624 21.376C10.16 20.912 10.16 20.144 10.624 19.68L14.304 16L10.624 12.32C10.16 11.856 10.16 11.088 10.624 10.624C11.088 10.16 11.856 10.16 12.32 10.624L16 14.304L19.68 10.624C20.144 10.16 20.912 10.16 21.376 10.624C21.84 11.088 21.84 11.856 21.376 12.32L17.696 16L21.376 19.68Z" fill="white"/>
</svg>
