<svg width="41" height="42" viewBox="0 0 41 42" fill="none" xmlns="http://www.w3.org/2000/svg">
<path d="M40.4999 11.9151V11.9164V29.104C40.4999 32.7374 39.4188 35.5773 37.4878 37.5083C35.5568 39.4393 32.7169 40.5204 29.0835 40.5204H11.9164C8.28302 40.5204 5.4433 39.4393 3.51235 37.506C1.58132 35.5725 0.5 32.7275 0.5 29.0835V11.9164C0.5 8.28301 1.58111 5.44315 3.51213 3.51213C5.44315 1.58111 8.28301 0.5 11.9164 0.5H29.104C32.7375 0.5 35.5772 1.58115 37.5055 3.51191C39.4338 5.44256 40.5099 8.28196 40.4999 11.9151ZM10.2551 31.7781H30.7653C31.8824 31.7781 32.8036 30.8569 32.8036 29.7398C32.8036 28.6228 31.8824 27.7016 30.7653 27.7016H10.2551C9.13805 27.7016 8.21684 28.6228 8.21684 29.7398C8.21684 30.8569 9.13805 31.7781 10.2551 31.7781ZM10.2551 22.5485H30.7653C31.8824 22.5485 32.8036 21.6273 32.8036 20.5102C32.8036 19.3932 31.8824 18.472 30.7653 18.472H10.2551C9.13805 18.472 8.21684 19.3932 8.21684 20.5102C8.21684 21.6273 9.13805 22.5485 10.2551 22.5485ZM10.2551 13.3189H30.7653C31.8824 13.3189 32.8036 12.3977 32.8036 11.2806C32.8036 10.1636 31.8824 9.24235 30.7653 9.24235H10.2551C9.13805 9.24235 8.21684 10.1636 8.21684 11.2806C8.21684 12.3977 9.13805 13.3189 10.2551 13.3189Z" fill="#1E1E1E" stroke="#5F5F60"/>
</svg>
